<svg xmlns="http://www.w3.org/2000/svg" xmlns:xlink="http://www.w3.org/1999/xlink" width="500" zoomAndPan="magnify" viewBox="0 0 375 374.999991" height="500" preserveAspectRatio="xMidYMid meet" version="1.0"><defs><g/><clipPath id="bac71df349"><path d="M 58.761719 214.675781 L 136.617188 214.675781 L 136.617188 292.527344 L 58.761719 292.527344 Z M 58.761719 214.675781 " clip-rule="nonzero"/></clipPath><clipPath id="74577b8563"><path d="M 97.691406 214.675781 C 76.191406 214.675781 58.761719 232.101562 58.761719 253.601562 C 58.761719 275.097656 76.191406 292.527344 97.691406 292.527344 C 119.1875 292.527344 136.617188 275.097656 136.617188 253.601562 C 136.617188 232.101562 119.1875 214.675781 97.691406 214.675781 Z M 97.691406 214.675781 " clip-rule="nonzero"/></clipPath><clipPath id="27130e855d"><path d="M 9.132812 161 L 117 161 L 117 268 L 9.132812 268 Z M 9.132812 161 " clip-rule="nonzero"/></clipPath><clipPath id="fb99fdb145"><path d="M 9.132812 160.75 L 117.132812 160.75 L 117.132812 268.75 L 9.132812 268.75 Z M 9.132812 160.75 " clip-rule="nonzero"/></clipPath><clipPath id="e41f3eaf11"><path d="M 350 165 L 361 165 L 361 175.941406 L 350 175.941406 Z M 350 165 " clip-rule="nonzero"/></clipPath></defs><rect x="-37.5" width="450" fill="#ffffff" y="-37.499999" height="449.999989" fill-opacity="1"/><rect x="-37.5" width="450" fill="#ffffff" y="-37.499999" height="449.999989" fill-opacity="1"/><g fill="#1a539d" fill-opacity="1"><g transform="translate(28.67502, 255.750983)"><g><path d="M 89.4375 -96.515625 L 74.984375 -96.515625 L 74.984375 -5.1875 L 92.703125 -5.1875 L 92.703125 0 L 4.09375 0 L 4.09375 -5.1875 L 21.8125 -5.1875 L 21.8125 -185.671875 L 4.09375 -185.671875 L 4.09375 -190.859375 L 86.4375 -190.859375 C 110.0625 -190.859375 126.828125 -189.628906 136.734375 -187.171875 C 146.640625 -184.722656 153.59375 -181.769531 157.59375 -178.3125 C 166.320312 -171.226562 170.6875 -159.957031 170.6875 -144.5 C 170.6875 -129.050781 166.867188 -118.007812 159.234375 -111.375 C 151.597656 -104.738281 139.960938 -100.785156 124.328125 -99.515625 L 124.328125 -98.703125 C 139.054688 -96.703125 149.328125 -92.335938 155.140625 -85.609375 C 160.953125 -78.890625 163.859375 -67.617188 163.859375 -51.796875 L 163.859375 -37.359375 C 163.859375 -27.898438 164.359375 -21.535156 165.359375 -18.265625 C 166.359375 -14.992188 168.492188 -13.359375 171.765625 -13.359375 C 175.046875 -13.359375 177.640625 -14.859375 179.546875 -17.859375 C 181.453125 -20.859375 183.222656 -27.175781 184.859375 -36.8125 L 189.5 -36.265625 C 187.5 -20.816406 184 -10.457031 179 -5.1875 C 174 0.0820312 164.046875 2.71875 149.140625 2.71875 C 134.234375 2.71875 123.644531 -0.773438 117.375 -7.765625 C 111.101562 -14.765625 107.96875 -27.898438 107.96875 -47.171875 L 107.96875 -67.078125 C 107.96875 -77.253906 106.648438 -84.703125 104.015625 -89.421875 C 101.378906 -94.148438 96.519531 -96.515625 89.4375 -96.515625 Z M 74.984375 -185.671875 L 74.984375 -101.703125 L 83.703125 -101.703125 C 94.066406 -101.703125 101.75 -104.878906 106.75 -111.234375 C 111.75 -117.597656 114.25 -127.960938 114.25 -142.328125 L 114.25 -150.234375 C 114.25 -164.585938 111.835938 -174.082031 107.015625 -178.71875 C 102.203125 -183.351562 94.523438 -185.671875 83.984375 -185.671875 Z M 74.984375 -185.671875 "/></g></g></g><g clip-path="url(#bac71df349)"><g clip-path="url(#74577b8563)"><path fill="#ffffff" d="M 58.761719 214.675781 L 136.617188 214.675781 L 136.617188 292.527344 L 58.761719 292.527344 Z M 58.761719 214.675781 " fill-opacity="1" fill-rule="nonzero"/></g></g><path fill="#003955" d="M 19.816406 214.839844 L 19.816406 214.667969 C 19.816406 199.296875 28.085938 184.949219 41.398438 177.226562 C 41.5 177.164062 41.597656 177.144531 41.695312 177.144531 C 41.917969 177.144531 42.113281 177.246094 42.230469 177.449219 C 42.398438 177.730469 42.300781 178.09375 41.996094 178.261719 C 29.054688 185.769531 21.011719 199.710938 21.011719 214.667969 L 21.011719 214.839844 C 21.011719 215.171875 20.753906 215.4375 20.414062 215.4375 C 20.082031 215.4375 19.816406 215.171875 19.816406 214.839844 " fill-opacity="1" fill-rule="nonzero"/><g clip-path="url(#27130e855d)"><path fill="#effafd" d="M 83.816406 177.398438 C 83.648438 177.675781 83.753906 178.058594 84.03125 178.210938 C 96.992188 185.699219 105.066406 199.628906 105.097656 214.585938 C 105.097656 214.902344 105.367188 215.183594 105.699219 215.183594 C 106.035156 215.171875 106.296875 214.902344 106.296875 214.570312 C 106.261719 199.191406 97.960938 184.867188 84.628906 177.175781 C 84.53125 177.128906 84.429688 177.097656 84.332031 177.097656 C 84.117188 177.097656 83.914062 177.207031 83.816406 177.398438 Z M 41.332031 251.375 C 41.164062 251.664062 41.265625 252.027344 41.566406 252.195312 C 48.074219 255.941406 55.507812 257.902344 63.050781 257.902344 C 70.699219 257.902344 78.207031 255.886719 84.78125 252.058594 C 85.066406 251.894531 85.164062 251.53125 85 251.246094 C 84.882812 251.042969 84.683594 250.949219 84.480469 250.949219 C 84.382812 250.949219 84.285156 250.960938 84.183594 251.03125 C 77.792969 254.742188 70.484375 256.707031 63.050781 256.707031 C 55.710938 256.707031 48.488281 254.789062 42.164062 251.148438 C 41.863281 251 41.5 251.097656 41.332031 251.375 Z M 19.816406 214.667969 L 19.816406 214.839844 C 19.816406 215.171875 20.082031 215.4375 20.414062 215.4375 C 20.753906 215.4375 21.011719 215.171875 21.011719 214.839844 L 21.011719 214.667969 C 21.011719 199.710938 29.054688 185.769531 41.996094 178.261719 C 42.300781 178.09375 42.398438 177.730469 42.230469 177.449219 C 42.113281 177.246094 41.917969 177.144531 41.695312 177.144531 C 41.597656 177.144531 41.5 177.164062 41.398438 177.226562 C 28.085938 184.949219 19.816406 199.296875 19.816406 214.667969 Z M 63.050781 267.917969 C 33.648438 267.917969 9.800781 244.078125 9.800781 214.667969 C 9.800781 185.25 33.648438 161.417969 63.050781 161.417969 C 92.46875 161.417969 116.300781 185.25 116.300781 214.667969 C 116.300781 244.078125 92.46875 267.917969 63.050781 267.917969 Z M 63.050781 206.382812 C 58.472656 206.382812 54.761719 210.074219 54.761719 214.667969 C 54.761719 219.246094 58.472656 222.957031 63.050781 222.957031 C 66.078125 222.957031 68.703125 221.324219 70.152344 218.925781 L 63.050781 214.667969 L 63.050781 206.382812 " fill-opacity="1" fill-rule="nonzero"/></g><path fill="#003955" d="M 41.566406 252.195312 C 41.265625 252.027344 41.164062 251.664062 41.332031 251.375 C 41.5 251.097656 41.863281 251 42.164062 251.148438 C 48.488281 254.789062 55.710938 256.707031 63.050781 256.707031 C 70.484375 256.707031 77.792969 254.742188 84.183594 251.03125 C 84.285156 250.960938 84.382812 250.949219 84.480469 250.949219 C 84.683594 250.949219 84.882812 251.042969 85 251.246094 C 85.164062 251.53125 85.066406 251.894531 84.78125 252.058594 C 78.207031 255.886719 70.699219 257.902344 63.050781 257.902344 C 55.507812 257.902344 48.074219 255.941406 41.566406 252.195312 " fill-opacity="1" fill-rule="nonzero"/><path fill="#ee6d2b" d="M 63.050781 222.957031 C 58.472656 222.957031 54.761719 219.246094 54.761719 214.667969 C 54.761719 210.074219 58.472656 206.382812 63.050781 206.382812 L 63.050781 214.667969 L 70.152344 218.925781 C 68.703125 221.324219 66.078125 222.957031 63.050781 222.957031 " fill-opacity="1" fill-rule="nonzero"/><path fill="#003955" d="M 84.03125 178.210938 C 83.753906 178.058594 83.648438 177.675781 83.816406 177.398438 C 83.914062 177.207031 84.117188 177.097656 84.332031 177.097656 C 84.429688 177.097656 84.53125 177.128906 84.628906 177.175781 C 97.960938 184.867188 106.261719 199.191406 106.296875 214.570312 C 106.296875 214.902344 106.035156 215.171875 105.699219 215.183594 C 105.367188 215.183594 105.097656 214.902344 105.097656 214.585938 C 105.066406 199.628906 96.992188 185.699219 84.03125 178.210938 " fill-opacity="1" fill-rule="nonzero"/><g clip-path="url(#fb99fdb145)"><path fill="#003955" d="M 63.050781 267.085938 C 91.949219 267.085938 115.46875 243.570312 115.46875 214.667969 C 115.46875 185.769531 91.949219 162.25 63.050781 162.25 C 34.148438 162.25 10.632812 185.769531 10.632812 214.667969 C 10.632812 243.570312 34.148438 267.085938 63.050781 267.085938 Z M 63.050781 160.585938 C 92.871094 160.585938 117.132812 184.847656 117.132812 214.667969 C 117.132812 244.492188 92.871094 268.75 63.050781 268.75 C 33.226562 268.75 8.96875 244.492188 8.96875 214.667969 C 8.96875 184.847656 33.226562 160.585938 63.050781 160.585938 " fill-opacity="1" fill-rule="nonzero"/></g><path fill="#003955" d="M 105.699219 214.765625 C 105.796875 214.765625 105.878906 214.675781 105.878906 214.570312 C 105.847656 199.34375 97.625 185.160156 84.421875 177.539062 C 84.375 177.515625 84.335938 177.515625 84.332031 177.515625 C 84.265625 177.515625 84.207031 177.546875 84.183594 177.59375 C 84.148438 177.652344 84.144531 177.695312 84.15625 177.746094 C 84.167969 177.773438 84.1875 177.820312 84.226562 177.84375 C 97.332031 185.410156 105.484375 199.492188 105.515625 214.585938 C 105.515625 214.675781 105.59375 214.765625 105.699219 214.765625 Z M 84.332031 176.683594 C 84.492188 176.683594 84.648438 176.722656 84.820312 176.804688 C 98.300781 184.578125 106.679688 199.050781 106.710938 214.570312 C 106.710938 215.125 106.277344 215.574219 105.71875 215.597656 C 105.144531 215.597656 104.683594 215.136719 104.683594 214.585938 C 104.652344 199.785156 96.664062 185.984375 83.824219 178.574219 C 83.601562 178.457031 83.433594 178.234375 83.363281 177.976562 C 83.285156 177.710938 83.316406 177.421875 83.460938 177.183594 C 83.621094 176.878906 83.96875 176.683594 84.332031 176.683594 " fill-opacity="1" fill-rule="nonzero"/><path fill="#003955" d="M 20.414062 215.019531 C 20.519531 215.019531 20.597656 214.9375 20.597656 214.839844 L 20.597656 214.667969 C 20.597656 199.570312 28.714844 185.476562 41.789062 177.902344 C 41.84375 177.871094 41.878906 177.824219 41.890625 177.78125 C 41.898438 177.753906 41.902344 177.703125 41.871094 177.65625 C 41.8125 177.558594 41.65625 177.558594 41.632812 177.578125 C 28.421875 185.234375 20.230469 199.445312 20.230469 214.667969 L 20.230469 214.839844 C 20.230469 214.9375 20.316406 215.019531 20.414062 215.019531 Z M 41.695312 176.726562 C 42.074219 176.726562 42.40625 176.921875 42.59375 177.234375 C 42.730469 177.46875 42.761719 177.742188 42.691406 178 C 42.621094 178.269531 42.445312 178.488281 42.195312 178.625 C 29.390625 186.050781 21.429688 199.863281 21.429688 214.667969 L 21.429688 214.839844 C 21.429688 215.398438 20.980469 215.851562 20.414062 215.851562 C 19.855469 215.851562 19.398438 215.398438 19.398438 214.839844 L 19.398438 214.667969 C 19.398438 199.148438 27.746094 184.664062 41.1875 176.871094 C 41.324219 176.78125 41.5 176.726562 41.695312 176.726562 " fill-opacity="1" fill-rule="nonzero"/><path fill="#003955" d="M 63.050781 257.488281 C 70.628906 257.488281 78.078125 255.484375 84.570312 251.703125 C 84.644531 251.664062 84.683594 251.53125 84.636719 251.453125 C 84.53125 251.273438 84.429688 251.363281 84.414062 251.375 C 77.933594 255.140625 70.558594 257.121094 63.050781 257.121094 C 55.625 257.121094 48.332031 255.179688 41.957031 251.507812 C 41.878906 251.460938 41.75 251.5 41.691406 251.589844 C 41.664062 251.644531 41.671875 251.683594 41.675781 251.714844 C 41.691406 251.765625 41.722656 251.804688 41.769531 251.832031 C 48.203125 255.53125 55.554688 257.488281 63.050781 257.488281 Z M 84.480469 250.53125 C 84.84375 250.53125 85.175781 250.71875 85.359375 251.039062 C 85.496094 251.265625 85.535156 251.539062 85.460938 251.804688 C 85.390625 252.066406 85.226562 252.28125 84.996094 252.417969 C 78.363281 256.277344 70.777344 258.320312 63.050781 258.320312 C 55.410156 258.320312 47.910156 256.324219 41.359375 252.558594 C 41.117188 252.421875 40.941406 252.195312 40.871094 251.933594 C 40.800781 251.667969 40.839844 251.402344 40.972656 251.167969 C 41.246094 250.699219 41.851562 250.523438 42.351562 250.777344 C 48.617188 254.386719 55.769531 256.289062 63.050781 256.289062 C 70.40625 256.289062 77.640625 254.347656 83.972656 250.675781 C 84.105469 250.582031 84.277344 250.53125 84.480469 250.53125 " fill-opacity="1" fill-rule="nonzero"/><path fill="#003955" d="M 95.964844 232.824219 C 96.109375 232.824219 96.253906 232.855469 96.382812 232.933594 L 104.4375 237.597656 C 104.832031 237.824219 104.96875 238.335938 104.734375 238.734375 C 104.507812 239.136719 103.996094 239.265625 103.605469 239.039062 L 95.550781 234.378906 C 95.148438 234.152344 95.019531 233.636719 95.246094 233.242188 C 95.402344 232.972656 95.679688 232.824219 95.964844 232.824219 " fill-opacity="1" fill-rule="nonzero"/><path fill="#003955" d="M 63.050781 166.546875 C 63.511719 166.546875 63.882812 166.917969 63.882812 167.378906 L 63.882812 176.664062 C 63.882812 177.125 63.511719 177.496094 63.050781 177.496094 C 62.589844 177.496094 62.21875 177.125 62.21875 176.664062 L 62.21875 167.378906 C 62.21875 166.917969 62.589844 166.546875 63.050781 166.546875 " fill-opacity="1" fill-rule="nonzero"/><path fill="#003955" d="M 30.152344 232.824219 C 30.4375 232.824219 30.71875 232.972656 30.867188 233.242188 C 31.101562 233.636719 30.964844 234.152344 30.566406 234.378906 L 22.515625 239.039062 C 22.125 239.265625 21.609375 239.136719 21.375 238.734375 C 21.148438 238.335938 21.285156 237.824219 21.683594 237.597656 L 29.734375 232.933594 C 29.867188 232.855469 30.007812 232.824219 30.152344 232.824219 " fill-opacity="1" fill-rule="nonzero"/><path fill="#003955" d="M 63.050781 205.550781 C 63.511719 205.550781 63.882812 205.921875 63.882812 206.382812 C 63.882812 206.84375 63.511719 207.214844 63.050781 207.214844 C 58.941406 207.214844 55.59375 210.5625 55.59375 214.667969 C 55.59375 218.777344 58.941406 222.125 63.050781 222.125 C 65.683594 222.125 68.066406 220.765625 69.445312 218.5 L 69.6875 218.09375 L 70.003906 218.09375 C 70.492188 217.984375 71.003906 218.394531 71.003906 218.914062 C 71.003906 219.101562 70.933594 219.277344 70.832031 219.421875 C 69.148438 222.15625 66.242188 223.789062 63.050781 223.789062 C 58.019531 223.789062 53.929688 219.699219 53.929688 214.667969 C 53.929688 209.636719 58.019531 205.550781 63.050781 205.550781 " fill-opacity="1" fill-rule="nonzero"/><path fill="#003955" d="M 63.050781 188.726562 C 63.511719 188.726562 63.882812 189.097656 63.882812 189.558594 L 63.882812 214.203125 L 87.125 228.117188 C 87.515625 228.351562 87.644531 228.867188 87.414062 229.261719 C 87.171875 229.660156 86.660156 229.78125 86.269531 229.546875 L 62.21875 215.136719 L 62.21875 189.558594 C 62.21875 189.097656 62.589844 188.726562 63.050781 188.726562 " fill-opacity="1" fill-rule="nonzero"/><g fill="#bfa181" fill-opacity="1"><g transform="translate(194.000124, 169.614028)"><g><path d="M 8.148438 -29.179688 L 1.640625 -29.226562 L 1.640625 -26.039062 L 3.6875 -26.039062 L 3.6875 -3.1875 L 1.640625 -3.1875 L 1.640625 0 L 9.742188 0 L 9.742188 -3.1875 L 7.691406 -3.1875 L 7.691406 -23.945312 L 16.886719 -9.148438 L 18.4375 -9.148438 L 27.722656 -23.945312 L 27.722656 -3.1875 L 25.582031 -3.1875 L 25.582031 0 L 33.730469 0 L 33.730469 -3.1875 L 31.683594 -3.1875 L 31.683594 -26.039062 L 33.730469 -26.039062 L 33.730469 -29.179688 L 27.222656 -29.179688 L 17.707031 -13.65625 Z M 8.148438 -29.179688 "/></g></g></g><g fill="#bfa181" fill-opacity="1"><g transform="translate(247.48697, 169.614028)"><g><path d="M 1.640625 -29.179688 L 1.640625 -26.039062 L 3.6875 -26.039062 L 3.6875 -3.1875 L 1.640625 -3.1875 L 1.640625 0 L 22.898438 0 L 22.898438 -5.507812 L 20.03125 -5.507812 L 19.894531 -3.1875 L 7.691406 -3.1875 L 7.691406 -13.019531 L 16.660156 -13.019531 L 16.660156 -16.207031 L 7.691406 -16.207031 L 7.691406 -26.039062 L 19.894531 -26.039062 L 20.03125 -23.761719 L 22.898438 -23.761719 L 22.898438 -29.179688 Z M 1.640625 -29.179688 "/></g></g></g><g fill="#bfa181" fill-opacity="1"><g transform="translate(289.36686, 169.614028)"><g><path d="M 15.703125 -26.039062 C 22.667969 -26.039062 25.582031 -20.941406 25.582031 -14.613281 C 25.582031 -8.285156 22.667969 -3.1875 15.703125 -3.1875 L 7.691406 -3.1875 L 7.691406 -26.039062 Z M 1.640625 -29.179688 L 1.640625 -26.039062 L 3.6875 -26.039062 L 3.6875 -3.1875 L 1.640625 -3.1875 L 1.640625 0 L 16.160156 0 C 25.265625 0 29.589844 -6.554688 29.589844 -14.613281 C 29.589844 -22.667969 25.265625 -29.179688 16.160156 -29.179688 Z M 1.640625 -29.179688 "/></g></g></g><path fill="#1a539d" d="M 336.140625 163.144531 L 333.328125 153.351562 C 333.328125 153.351562 330.6875 154.113281 329.8125 154.351562 C 327.769531 154.914062 324.59375 156.898438 325.660156 160.589844 C 326.925781 164.980469 330.65625 164.710938 332.632812 164.148438 C 333.867188 163.808594 336.140625 163.144531 336.140625 163.144531 Z M 336.140625 163.144531 " fill-opacity="1" fill-rule="nonzero"/><path fill="#303030" d="M 350.085938 167.027344 L 360.179688 165.601562 C 360.179688 165.601562 359.800781 162.890625 359.675781 161.980469 C 359.402344 159.878906 357.878906 156.453125 354.074219 156.992188 C 349.550781 157.628906 349.300781 161.367188 349.574219 163.402344 C 349.75 164.691406 350.085938 167.027344 350.085938 167.027344 Z M 350.085938 167.027344 " fill-opacity="1" fill-rule="nonzero"/><path fill="#74aedb" d="M 355.695312 145.453125 L 346.367188 141.355469 C 346.367188 141.355469 345.265625 143.871094 344.882812 144.699219 C 344.007812 146.625 343.503906 150.339844 347.027344 151.886719 C 351.210938 153.722656 353.386719 150.679688 354.222656 148.800781 C 354.753906 147.617188 355.695312 145.453125 355.695312 145.453125 Z M 355.695312 145.453125 " fill-opacity="1" fill-rule="nonzero"/><path fill="#e8e8e8" d="M 336.140625 163.144531 L 333.328125 153.351562 C 333.328125 153.351562 335.96875 152.605469 336.84375 152.351562 C 338.871094 151.753906 342.625 151.761719 343.683594 155.453125 C 344.949219 159.84375 341.632812 161.582031 339.664062 162.152344 C 338.40625 162.507812 336.140625 163.144531 336.140625 163.144531 Z M 336.140625 163.144531 " fill-opacity="1" fill-rule="nonzero"/><g clip-path="url(#e41f3eaf11)"><path fill="#e8e8e8" d="M 350.085938 167.027344 L 360.179688 165.601562 C 360.179688 165.601562 360.542969 168.316406 360.683594 169.21875 C 360.992188 171.3125 360.460938 175.023438 356.65625 175.5625 C 352.132812 176.199219 350.875 172.675781 350.585938 170.648438 C 350.402344 169.367188 350.085938 167.027344 350.085938 167.027344 Z M 350.085938 167.027344 " fill-opacity="1" fill-rule="nonzero"/></g><path fill="#e8e8e8" d="M 355.695312 145.453125 L 346.367188 141.355469 C 346.367188 141.355469 347.480469 138.859375 347.835938 138.015625 C 348.671875 136.070312 351.082031 133.191406 354.597656 134.738281 C 358.78125 136.574219 357.996094 140.230469 357.167969 142.109375 C 356.664062 143.300781 355.695312 145.453125 355.695312 145.453125 Z M 355.695312 145.453125 " fill-opacity="1" fill-rule="nonzero"/><path fill="#ffffff" d="M 331.300781 162.46875 C 331.261719 162.328125 331.128906 162.246094 330.996094 162.261719 C 330.53125 162.335938 330.050781 162.246094 329.621094 161.996094 C 329.191406 161.746094 328.871094 161.367188 328.6875 160.914062 C 328.628906 160.78125 328.488281 160.707031 328.355469 160.738281 C 328.199219 160.78125 328.117188 160.953125 328.183594 161.109375 C 328.414062 161.691406 328.828125 162.167969 329.367188 162.484375 C 329.902344 162.796875 330.507812 162.914062 331.09375 162.816406 C 331.25 162.789062 331.34375 162.625 331.300781 162.46875 Z M 331.300781 162.46875 " fill-opacity="1" fill-rule="nonzero"/><path fill="#ffffff" d="M 351.4375 162.335938 C 351.578125 162.320312 351.683594 162.195312 351.683594 162.054688 C 351.675781 161.582031 351.832031 161.121094 352.140625 160.738281 C 352.445312 160.351562 352.867188 160.085938 353.347656 159.960938 C 353.488281 159.929688 353.578125 159.796875 353.5625 159.664062 C 353.539062 159.507812 353.378906 159.398438 353.214844 159.441406 C 352.609375 159.589844 352.074219 159.9375 351.691406 160.417969 C 351.304688 160.902344 351.113281 161.484375 351.121094 162.078125 C 351.121094 162.234375 351.269531 162.359375 351.4375 162.335938 Z M 351.4375 162.335938 " fill-opacity="1" fill-rule="nonzero"/><path fill="#ffffff" d="M 352.082031 148.734375 C 351.949219 148.675781 351.800781 148.726562 351.726562 148.84375 C 351.484375 149.25 351.105469 149.5625 350.648438 149.726562 C 350.1875 149.894531 349.683594 149.902344 349.210938 149.753906 C 349.070312 149.710938 348.929688 149.769531 348.871094 149.894531 C 348.804688 150.042969 348.886719 150.214844 349.046875 150.265625 C 349.640625 150.457031 350.277344 150.449219 350.855469 150.234375 C 351.445312 150.019531 351.914062 149.628906 352.222656 149.117188 C 352.304688 148.984375 352.238281 148.800781 352.082031 148.734375 Z M 352.082031 148.734375 " fill-opacity="1" fill-rule="nonzero"/></svg>